# xmcd
#
# Track frame offsets:
#	182
#	13325
#	23850
#	31905
#	43570
#	53392
#	63132
#	73427
#	84737
#	94160
#	104262
#	116515
#
# Disc length: 1713 seconds
#
# Revision: 3
# Processed by: cddbd v1.5.1PL0 Copyright (c) Steve Scherf et al.
# Submitted via: audiograbber 1.83.01
#
DISCID=9906af0c
DTITLE=Bill Monroe - At His Best
DYEAR=1989
DGENRE=Country
TTITLE0=Orange Blossom Special
TTITLE1=Uncle Penn
TTITLE2=Footprints In The Snow
TTITLE3=Bluegrass Breakdown
TTITLE4=I Saw The Light
TTITLE5=Shady Grove
TTITLE6=Shenendoah Breakdown
TTITLE7=Mule Skinner Blues
TTITLE8=Prison Song
TTITLE9=Blue Moon Of Kentucky
TTITLE10=Can't You Hear Me Callin'
TTITLE11=Nine Pound Hammer
EXTD=
EXTT0=
EXTT1=
EXTT2=
EXTT3=
EXTT4=
EXTT5=
EXTT6=
EXTT7=
EXTT8=
EXTT9=
EXTT10=
EXTT11=
PLAYORDER=
